<svg width="120" height="120" viewBox="0 0 120 120" fill="none" xmlns="http://www.w3.org/2000/svg">
<circle cx="60" cy="60" r="55" fill="#FFF9F0" stroke="#8A7D6F" stroke-width="10"/>
<path d="M48.05 43.0774L53.0887 33.0126C53.9756 31.2412 56.6217 31.6986 56.8623 33.6649L58.8947 50.2721C58.9062 50.3666 58.9111 50.4618 58.9091 50.5569L58.4262 73.6372C58.4087 74.4725 57.8738 75.2089 57.0849 75.4839L52.2045 77.185C51.8847 77.2965 51.5419 77.3249 51.2081 77.2677L43.8838 76.0112C43.1188 75.88 42.4989 75.318 42.2933 74.5696L39.7618 65.3507C39.6477 64.9351 39.6709 64.4938 39.8279 64.0924L48.05 43.0774Z" fill="#C4C4C4"/>
<path d="M27.9096 88.75C26.9438 87.8647 27.0759 86.3054 28.1768 85.5951L40.7854 77.4605C41.242 77.1659 41.7988 77.0698 42.3278 77.1943L49.5547 78.8947C49.8478 78.9637 50.1527 78.9656 50.4466 78.9003L56.31 77.5973C57.6372 77.3024 58.8655 78.3891 58.7346 79.7423L57.6749 90.6922C57.5757 91.7173 56.7142 92.4995 55.6842 92.4995H32.778C32.2776 92.4995 31.7954 92.3119 31.4265 91.9738L27.9096 88.75Z" fill="#614B3D"/>
<path d="M71.157 43.5344L66.1183 33.4696C65.2315 31.6982 62.5853 32.1557 62.3447 34.122L60.3123 50.7292C60.3008 50.8236 60.296 50.9188 60.298 51.014L60.7809 74.0942C60.7983 74.9295 61.3332 75.666 62.1222 75.941L67.0025 77.6421C67.3223 77.7535 67.6652 77.782 67.999 77.7247L75.3232 76.4682C76.0882 76.337 76.7082 75.775 76.9137 75.0266L79.4452 65.8077C79.5593 65.3921 79.5361 64.9508 79.3791 64.5494L71.157 43.5344Z" fill="#C4C4C4"/>
<path d="M91.2974 89.665C92.2632 88.7797 92.1311 87.2204 91.0302 86.5101L78.4216 78.3756C77.965 78.081 77.4082 77.9849 76.8793 78.1093L69.6524 79.8098C69.3593 79.8787 69.0544 79.8806 68.7604 79.8153L62.897 78.5123C61.5698 78.2174 60.3415 79.3041 60.4725 80.6573L61.5321 91.6072C61.6313 92.6324 62.4929 93.4146 63.5228 93.4146H86.4291C86.9294 93.4146 87.4117 93.227 87.7805 92.8889L91.2974 89.665Z" fill="#614B3D"/>
</svg>
