<svg width="80" height="78" viewBox="0 0 80 78" fill="none" xmlns="http://www.w3.org/2000/svg">
<path d="M2.90059 38.6828C1.5704 39.3536 1.56027e-06 38.3868 1.44108e-06 36.897L2.46828e-07 21.9703C9.55181e-08 20.079 1.06704 18.3497 2.75734 17.5014L35.5147 1.06233C38.3371 -0.354109 41.6628 -0.354109 44.4853 1.06233L77.2427 17.5014C78.933 18.3497 80 20.0791 80 21.9703V36.897C80 38.3868 78.4296 39.3536 77.0994 38.6828L44.5029 22.2438C41.6709 20.8156 38.3291 20.8156 35.497 22.2438L2.90059 38.6828Z" fill="white"/>
<path d="M2.90059 77.3486C1.5704 78.0194 1.56027e-06 77.0526 1.44108e-06 75.5628L2.46828e-07 60.6361C9.55181e-08 58.7449 1.06704 57.0155 2.75734 56.1672L35.5147 39.7281C38.3371 38.3117 41.6628 38.3117 44.4853 39.7281L77.2427 56.1672C78.933 57.0155 80 58.7449 80 60.6361V75.5628C80 77.0526 78.4296 78.0194 77.0994 77.3486L44.5029 60.9096C41.6709 59.4814 38.3291 59.4814 35.497 60.9096L2.90059 77.3486Z" fill="white"/>
</svg>
